<svg xmlns="http://www.w3.org/2000/svg" width="1024" height="1024" viewBox="0 0 1024 1024">
  <defs>
    <filter id="shadow" x="-20%" y="-20%" width="140%" height="140%">
      <feDropShadow dx="0" dy="18" stdDeviation="18" flood-opacity=".22"/>
    </filter>
  </defs>
<!--App icon background-->
  <rect x="64" y="64" width="896" height="896" rx="205" fill="#1769E0" filter="url(#shadow)"/>
<!--P / Board shape-->
  <path d="M266 206
      H548
      C690 206 790 304 790 423
      C790 543 690 621 548 621
      H528
      V818
      H266 Z" fill="none" stroke="#FFFFFF" stroke-width="42" stroke-linejoin="round"/>
<!--Pages on the board-->
  <g filter="url(#shadow)">
<!--Page 1-->
    <path d="M325 323 H428 L469 364 V489 H325 Z" fill="#8DBBFF"/>
    <path d="M428 323 V364 H469" fill="#679BE8"/>
<!--Page 2-->
    <path d="M520 323 H624 L665 364 V489 H520 Z" fill="#FFC94A"/>
    <path d="M624 323 V364 H665" fill="#E5AE25"/>
<!--Page 3-->
    <path d="M325 535 H428 L469 576 V700 H325 Z" fill="#FFFFFF"/>
    <path d="M428 535 V576 H469" fill="#DDE6F5"/>
  </g>
</svg>
